<svg id="erUILJbB8V01" xmlns="http://www.w3.org/2000/svg" xmlns:xlink="http://www.w3.org/1999/xlink" viewBox="0 0 300 300" shape-rendering="geometricPrecision" text-rendering="geometricPrecision" project-id="77a20508271b4514a0f35418d6653e49" export-id="5eff9cf68ebc460d9a89e106e2e4fd4b" cached="false"><g transform="translate(-156.967415-156.653587)"><path d="M0,0c.884297.732188,1.768594,1.464375,2.679688,2.21875C22.612476,19.425169,34.280241,43.984006,36.658447,70.064697C38.523739,95.767886,31.840962,121.43711,15.6875,141.8125C14.467557,143.216402,13.239837,144.613636,12,146c-.763125,1.010625-1.52625,2.02125-2.3125,3.0625C5.555551,153.578816,0.828914,157.255128,-4,161c-1.158223.916523-1.158223.916523-2.339844,1.851563-22.030695,16.494776-50.290125,21.214139-77.207031,17.652343C-101.984763,177.061389,-118.872318,169.288418,-133,157c-1.061777-.834254-2.124179-1.667715-3.1875-2.5-20.295671-18.040596-31.044111-44.452885-32.710449-71.130371-1.196606-27.7853,8.812643-54.252042,27.397949-74.807129C-124.891301,-9.092917,-103.793374,-19.372311,-80,-23c.922969-.154687,1.845938-.309375,2.796875-.46875C-49.332612,-27.012977,-21.330113,-17.744709,0,0ZM-121,20c-.621328.528516-1.242656,1.057031-1.882812,1.601563C-132.13824,29.99602,-139.128705,42.260219,-143,54c-.317109.920391-.634219,1.840781-.960937,2.789063-5.997473,20.853595-2.268841,42.694588,7.816406,61.472656c11.211141,20.004992,28.696529,32.717009,50.582031,39.113281C-63.705044,162.779626,-42.049492,158.393237,-23,147c18.689525-12.005271,30.721-29.680259,36.109375-51.164062C17.402744,75.568773,13.534088,54.625935,3,37C-9.61977,18.070346,-26.650463,5.258715,-49,0c-26.463471-4.825846-51.910566,1.754842-72,20Z" transform="translate(353 208)" fill="#fff"/><path d="M0,0C5.41688,4.527947,10.483008,9.308433,15.488281,14.285156c.78441.77871,1.56882,1.557419,2.376999,2.359726c1.645985,1.636591,3.290561,3.2746,4.933792,4.913956c2.516282,2.506505,5.043031,5.002147,7.570069,7.497803c1.60287,1.596346,3.205106,3.193329,4.80664,4.791015.755174.742828,1.510348,1.485655,2.288407,2.250992.698002.701003,1.396004,1.402007,2.115158,2.124252.613981.610336,1.227963,1.220672,1.86055,1.849503c3.697704,4.568723,4.795093,10.304856,4.419479,16.095566C44.653494,63.783371,40.370211,68.43222,34.375,73c-6.054597,1.793955-12.976975,2.234516-18.979004.053955-5.038294-3.047244-8.839989-7.131468-12.950683-11.315674-.901549-.905793-1.803097-1.811586-2.731965-2.744827-2.382616-2.396526-4.758517-4.79933-7.131378-7.20549-2.428062-2.458883-4.864758-4.909177-7.30072-7.36023C-19.487127,39.62633,-24.246831,34.816457,-29,30c3.710155-4.426607,7.521483-8.642149,11.617188-12.714844.502019-.500604,1.004038-1.001209,1.52127-1.516983c1.576479-1.570959,3.156428-3.138372,4.736542-4.705673c1.080963-1.075937,2.161694-2.152107,3.242188-3.228516C-5.257874,5.219967,-2.629814,2.609114,0,0Z" transform="translate(384 355)" fill="#fff"/></g></svg>
